<?xml version="1.0" encoding="UTF-8" standalone="no"?>
<!-- Generator: Adobe Illustrator 25.0.0, SVG Export Plug-In . SVG Version: 6.00 Build 0)  -->

<svg
   xmlns:dc="http://purl.org/dc/elements/1.1/"
   xmlns:cc="http://creativecommons.org/ns#"
   xmlns:rdf="http://www.w3.org/1999/02/22-rdf-syntax-ns#"
   xmlns:svg="http://www.w3.org/2000/svg"
   xmlns="http://www.w3.org/2000/svg"
   xmlns:sodipodi="http://sodipodi.sourceforge.net/DTD/sodipodi-0.dtd"
   xmlns:inkscape="http://www.inkscape.org/namespaces/inkscape"
   version="1.1"
   id="Layer_1"
   x="0px"
   y="0px"
   viewBox="0 0 1280 720"
   xml:space="preserve"
   sodipodi:docname="Website Design Companies.svg"
   width="1280"
   height="720"
   inkscape:version="0.92.4 (5da689c313, 2019-01-14)"
   inkscape:export-filename="D:\Project Media\Emerge mLab\Illustrations\Website Design Companies.png"
   inkscape:export-xdpi="96"
   inkscape:export-ydpi="96"><metadata
   id="metadata234"><rdf:RDF><cc:Work
       rdf:about=""><dc:format>image/svg+xml</dc:format><dc:type
         rdf:resource="http://purl.org/dc/dcmitype/StillImage" /><dc:title></dc:title></cc:Work></rdf:RDF></metadata><defs
   id="defs232" /><sodipodi:namedview
   pagecolor="#ffffff"
   bordercolor="#666666"
   borderopacity="1"
   objecttolerance="10"
   gridtolerance="10"
   guidetolerance="10"
   inkscape:pageopacity="0"
   inkscape:pageshadow="2"
   inkscape:window-width="2160"
   inkscape:window-height="1256"
   id="namedview230"
   showgrid="false"
   inkscape:zoom="0.57747054"
   inkscape:cx="637.39014"
   inkscape:cy="344.08163"
   inkscape:window-x="378"
   inkscape:window-y="-11"
   inkscape:window-maximized="1"
   inkscape:current-layer="Layer_1" />
<style
   type="text/css"
   id="style2">
	.st0{fill:url(#SVGID_1_);}
	.st1{fill:#D2EBF2;}
	.st2{fill:none;stroke:#33A5C3;stroke-width:5;stroke-miterlimit:10;}
	.st3{fill:#9933C3;}
	.st4{fill:#D2A4E4;}
	.st5{fill:#F4E8F8;}
	.st6{fill:#33A5C3;}
	.st7{fill:#4AAFCA;}
	.st8{fill:#60B9D0;}
	.st9{opacity:0.5;fill:#33A5C3;}
	.st10{fill:#A5DE8E;}
	.st11{fill:#DBF2D2;}
	.st12{fill:#FFFFFF;}
	.st13{fill:#E8D2F2;}
	.st14{fill:#8ECDDE;}
	.st15{fill:#A4D7E4;}
	.st16{fill:none;stroke:#1D1D1B;stroke-width:2.1221;stroke-miterlimit:10;}
	.st17{fill:#FFC5B2;}
	.st18{fill:#FFA082;}
	.st19{fill:#FFF0EE;}
	.st20{fill:#212121;}
	.st21{fill:#191919;}
	.st22{fill:none;stroke:#1D1D1B;stroke-miterlimit:10;}
	.st23{fill:#D78B77;}
	.st24{fill:#CA644A;}
	.st25{fill:#C35133;}
	.st26{fill:none;stroke:#6FCA4A;stroke-width:3;stroke-linecap:round;stroke-linejoin:round;stroke-miterlimit:10;}
	.st27{opacity:0.15;fill:#E8EDF8;}
	.st28{fill:#BBE1EB;}
	.st29{fill:none;stroke:#191919;stroke-width:5;stroke-linecap:round;stroke-linejoin:round;stroke-miterlimit:10;}
</style>
<linearGradient
   id="SVGID_1_"
   gradientUnits="userSpaceOnUse"
   x1="592.19043"
   y1="-205.62601"
   x2="1245.9591"
   y2="1033.9196"
   gradientTransform="translate(0,-360)">
	<stop
   offset="0"
   style="stop-color:#A4D7E4"
   id="stop4" />
	<stop
   offset="0.1645"
   style="stop-color:#ACDBE6"
   id="stop6" />
	<stop
   offset="1"
   style="stop-color:#D2EBF2"
   id="stop8" />
</linearGradient>























<g
   id="g1150"
   transform="matrix(0.66666296,0,0,0.66666296,-1.1340073e-6,240.00067)"><path
     style="fill:url(#SVGID_1_)"
     inkscape:connector-curvature="0"
     id="path11"
     d="m 1826.2,117.4 c -109.8,132.6 -106.4,375.3 -74.6,437 31.8,61.7 27.3,165.6 -72.2,165.6 -99.5,0 -246.4,-98.7 -400.6,-98.7 -119.3,0 -236.1,59.1 -463.9,85.8 -34.3,4 -71,7.3 -110.7,9.6 -37.5,2.1 -77.6,3.3 -120.6,3.3 -13.3,0 -26.3,-0.1 -39.1,-0.2 -31.6,-0.4 -61.8,-1.2 -90.6,-2.7 C 253.7,706.7 120.4,664.2 52.6,525.4 17.5,453.5 0,355.7 0,223.1 c 0,0 43.3,-583.1 664.3,-583.1 184.5,0 424.2,83.9 679.2,83.9 255,0 394.2,-73.3 504,12.2 109.9,85.5 88.5,248.7 -21.3,381.3 z"
     class="st0" /><ellipse
     style="fill:#d2ebf2"
     id="ellipse13"
     ry="369.89999"
     rx="648"
     cy="165.20001"
     cx="1239.3"
     class="st1" /><line
     style="fill:none;stroke:#33a5c3;stroke-width:5;stroke-miterlimit:10"
     id="line15"
     y2="335.40002"
     x2="1148.5"
     y1="151.39999"
     x1="861.59998"
     class="st2" /><line
     style="fill:none;stroke:#33a5c3;stroke-width:5;stroke-miterlimit:10"
     id="line17"
     y2="185.40002"
     x2="1168.9"
     y1="147.5"
     x1="849.90002"
     class="st2" /><line
     style="fill:none;stroke:#33a5c3;stroke-width:5;stroke-miterlimit:10"
     id="line19"
     y2="-20.299988"
     x2="1450.6"
     y1="145.10001"
     x1="866"
     class="st2" /><line
     style="fill:none;stroke:#33a5c3;stroke-width:5;stroke-miterlimit:10"
     id="line21"
     y2="331.5"
     x2="1508.2"
     y1="151.39999"
     x1="853.59998"
     class="st2" /><line
     style="fill:none;stroke:#33a5c3;stroke-width:5;stroke-miterlimit:10"
     id="line23"
     y2="-20.299988"
     x2="1079.9"
     y1="145.10001"
     x1="857.40002"
     class="st2" /><g
     transform="translate(0,-360)"
     id="g37">
	<path
   style="fill:#9933c3"
   inkscape:connector-curvature="0"
   id="path25"
   d="M 1308.7,340.8 H 880.1 c -16.7,0 -30.2,-13.5 -30.2,-30.2 V 31.2 C 849.9,14.5 863.4,1 880.1,1 h 428.6 c 16.7,0 30.2,13.5 30.2,30.2 v 279.4 c 0,16.7 -13.5,30.2 -30.2,30.2 z"
   class="st3" />
	<path
   style="fill:#d2a4e4"
   inkscape:connector-curvature="0"
   id="path27"
   d="M 1287.2,362.3 H 858.7 c -16.7,0 -30.2,-13.5 -30.2,-30.2 V 52.7 C 828.5,36 842,22.5 858.7,22.5 h 428.6 c 16.7,0 30.2,13.5 30.2,30.2 v 279.4 c -0.1,16.7 -13.6,30.2 -30.3,30.2 z"
   class="st4" />
	<circle
   style="fill:#f4e8f8"
   id="circle29"
   r="28.299999"
   cy="76.400002"
   cx="887.79999"
   class="st5" />
	<path
   style="fill:#f4e8f8"
   inkscape:connector-curvature="0"
   id="path31"
   d="m 1229.8,121.9 h -208.7 c -8,0 -14.5,-6.5 -14.5,-14.5 v -2.2 c 0,-8 6.5,-14.5 14.5,-14.5 h 208.7 c 8,0 14.5,6.5 14.5,14.5 v 2.2 c -0.1,8.1 -6.6,14.5 -14.5,14.5 z"
   class="st5" />
	<path
   style="fill:#f4e8f8"
   inkscape:connector-curvature="0"
   id="path33"
   d="m 1157.2,186.4 h -136.1 c -8,0 -14.5,-6.5 -14.5,-14.5 v -2.2 c 0,-8 6.5,-14.5 14.5,-14.5 h 136.1 c 8,0 14.5,6.5 14.5,14.5 v 2.2 c 0,8.1 -6.5,14.5 -14.5,14.5 z"
   class="st5" />
	<path
   style="fill:#f4e8f8"
   inkscape:connector-curvature="0"
   id="path35"
   d="m 1229.8,296 h -208.7 c -8,0 -14.5,-6.5 -14.5,-14.5 v -47.2 c 0,-8 6.5,-14.5 14.5,-14.5 h 208.7 c 8,0 14.5,6.5 14.5,14.5 v 47.2 c -0.1,8 -6.6,14.5 -14.5,14.5 z"
   class="st5" />
</g><g
     transform="translate(0,-360)"
     id="g53">
	<path
   style="fill:#33a5c3"
   inkscape:connector-curvature="0"
   id="path39"
   d="m 1780.1,336.8 h -266.3 c -6.6,0 -12,-5.4 -12,-12 V 137.7 c 0,-6.6 5.4,-12 12,-12 h 266.3 c 6.6,0 12,5.4 12,12 v 187.2 c 0,6.5 -5.4,11.9 -12,11.9 z"
   class="st6" />
	<path
   style="fill:#4aafca"
   inkscape:connector-curvature="0"
   id="path41"
   d="M 1745.3,371.7 H 1479 c -6.6,0 -12,-5.4 -12,-12 V 172.6 c 0,-6.6 5.4,-12 12,-12 h 266.3 c 6.6,0 12,5.4 12,12 v 187.2 c 0,6.5 -5.4,11.9 -12,11.9 z"
   class="st7" />
	<path
   style="fill:#60b9d0"
   inkscape:connector-curvature="0"
   id="path43"
   d="m 1722.4,209.4 v 183.3 c 0,7.7 -6.3,13.9 -13.9,13.9 h -262.4 c -7.7,0 -13.9,-6.3 -13.9,-13.9 V 209.4 c 0,-7.7 6.3,-13.9 13.9,-13.9 h 262.4 c 7.6,-0.1 13.9,6.2 13.9,13.9 z"
   class="st8" />
	<circle
   style="fill:#f4e8f8"
   id="circle45"
   r="20.9"
   cy="233.7"
   cx="1474.5"
   class="st5" />
	<path
   style="fill:#f4e8f8"
   inkscape:connector-curvature="0"
   id="path47"
   d="m 1651.1,246.2 h -94.6 c -5.9,0 -10.7,-4.8 -10.7,-10.7 V 232 c 0,-5.9 4.8,-10.7 10.7,-10.7 h 94.6 c 5.9,0 10.7,4.8 10.7,10.7 v 3.5 c 0,5.9 -4.8,10.7 -10.7,10.7 z"
   class="st5" />
	<path
   style="fill:#d2ebf2"
   inkscape:connector-curvature="0"
   id="path49"
   d="m 1722.4,268.7 v 124 c 0,7.7 -6.3,13.9 -13.9,13.9 h -262.4 c -7.7,0 -13.9,-6.3 -13.9,-13.9 v -29.1 c 10.5,-24.3 30.6,-57.1 63.3,-57.1 20.8,0 31.3,3.9 40.3,8.5 13.4,6.9 23.7,15.4 60.3,15.4 15.8,0 27,-4.8 35.8,-12 25,-20.5 29.4,-60.2 63.4,-60.2 11.5,-0.1 20.3,4.2 27.1,10.5 z"
   class="st1" />
	<path
   style="opacity:0.5;fill:#33a5c3"
   inkscape:connector-curvature="0"
   id="path51"
   d="m 1722.4,295.1 v 97.5 c 0,7.7 -6.3,13.9 -13.9,13.9 h -262.4 c -7.7,0 -13.9,-6.3 -13.9,-13.9 v -3.1 c 6.6,2 15,3.6 25.4,3.6 22.9,0 46.1,-50.8 78.1,-78.2 11.8,-10.1 24.8,-17 39.4,-17 33.1,0 44,11.5 56.7,20.4 8.1,5.8 17,10.5 33,10.5 37.5,0.1 28.8,-28.9 57.6,-33.7 z"
   class="st9" />
</g><g
     transform="translate(0,-360)"
     id="g65">
	<path
   style="fill:#a5de8e"
   inkscape:connector-curvature="0"
   id="path55"
   d="m 1386.8,461.3 v 134.2 c 0,8 -6.5,14.5 -14.5,14.5 H 1126 c -8,0 -14.5,-6.5 -14.5,-14.5 V 461.3 c 0,-8 6.5,-14.5 14.5,-14.5 h 246.3 c 8,0.1 14.5,6.5 14.5,14.5 z"
   class="st10" />
	<circle
   style="fill:#dbf2d2"
   id="circle57"
   r="17.700001"
   cy="481.39999"
   cx="1148.5"
   class="st11" />
	<path
   style="fill:#dbf2d2"
   inkscape:connector-curvature="0"
   id="path59"
   d="M 1350.1,501.2 H 1219 c -3.5,0 -6.3,-2.8 -6.3,-6.3 v -3.3 c 0,-3.5 2.8,-6.3 6.3,-6.3 h 131.2 c 3.5,0 6.3,2.8 6.3,6.3 v 3.3 c -0.1,3.5 -2.9,6.3 -6.4,6.3 z"
   class="st11" />
	<path
   style="fill:#dbf2d2"
   inkscape:connector-curvature="0"
   id="path61"
   d="M 1292.5,537.4 H 1219 c -3.5,0 -6.3,-2.8 -6.3,-6.3 v -3.3 c 0,-3.5 2.8,-6.3 6.3,-6.3 h 73.5 c 3.5,0 6.3,2.8 6.3,6.3 v 3.3 c -0.1,3.5 -2.9,6.3 -6.3,6.3 z"
   class="st11" />
	<path
   style="fill:#dbf2d2"
   inkscape:connector-curvature="0"
   id="path63"
   d="M 1316.4,586.5 H 1219 c -3.5,0 -6.3,-2.8 -6.3,-6.3 V 564 c 0,-3.5 2.8,-6.3 6.3,-6.3 h 97.5 c 3.5,0 6.3,2.8 6.3,6.3 v 16.2 c -0.1,3.5 -2.9,6.3 -6.4,6.3 z"
   class="st11" />
</g><g
     transform="translate(0,-360)"
     id="g93">
	<path
   style="fill:#9933c3"
   inkscape:connector-curvature="0"
   id="path67"
   d="m 1897,828.1 h -425 c -12.4,0 -22.5,-10.1 -22.5,-22.5 v -291 c 0,-12.4 10.1,-22.5 22.5,-22.5 h 425 c 12.4,0 22.5,10.1 22.5,22.5 v 291 c 0,12.4 -10.1,22.5 -22.5,22.5 z"
   class="st3" />
	<path
   style="fill:#ffffff"
   inkscape:connector-curvature="0"
   id="path69"
   d="m 1884.7,813 h -400.5 c -10.3,0 -18.6,-8.3 -18.6,-18.6 V 525.7 c 0,-10.3 8.3,-18.6 18.6,-18.6 h 400.5 c 10.3,0 18.6,8.3 18.6,18.6 v 268.7 c 0,10.3 -8.3,18.6 -18.6,18.6 z"
   class="st12" />
	<g
   id="g91">
		<path
   style="fill:#f4e8f8"
   inkscape:connector-curvature="0"
   id="path71"
   d="m 1818.4,774.5 h -238.8 c -9.2,0 -16.7,-7.5 -16.7,-16.7 v -104 h 272.3 v 104 c -0.1,9.2 -7.6,16.7 -16.8,16.7 z"
   class="st5" />
		<rect
   style="fill:#e8d2f2"
   id="rect73"
   height="16.700001"
   width="272.29999"
   class="st13"
   y="653.79999"
   x="1562.8" />
		<circle
   style="fill:#d2a4e4"
   id="circle75"
   r="17.9"
   cy="552.09998"
   cx="1508.2"
   class="st4" />
		<path
   style="fill:#d2a4e4"
   inkscape:connector-curvature="0"
   id="path77"
   d="m 1828.4,664.6 h -258.9 c -13.4,0 -24.2,-10.8 -24.2,-24.2 v -7.3 c 0,-13.4 10.8,-24.2 24.2,-24.2 h 258.9 c 13.4,0 24.2,10.8 24.2,24.2 v 7.3 c 0.1,13.4 -10.8,24.2 -24.2,24.2 z"
   class="st4" />
		<path
   style="fill:#d2a4e4"
   inkscape:connector-curvature="0"
   id="path79"
   d="m 1705.4,696.5 h -112.2 c -3.3,0 -5.9,-2.6 -5.9,-5.9 v -1.8 c 0,-3.3 2.6,-5.9 5.9,-5.9 h 112.2 c 3.3,0 5.9,2.6 5.9,5.9 v 1.8 c 0,3.3 -2.6,5.9 -5.9,5.9 z"
   class="st4" />
		<path
   style="fill:#d2a4e4"
   inkscape:connector-curvature="0"
   id="path81"
   d="m 1745.5,722.4 h -152.4 c -3.3,0 -5.9,-2.6 -5.9,-5.9 v -1.8 c 0,-3.3 2.6,-5.9 5.9,-5.9 h 152.4 c 3.3,0 5.9,2.6 5.9,5.9 v 1.8 c 0.1,3.3 -2.6,5.9 -5.9,5.9 z"
   class="st4" />
		<g
   id="g85">
			<path
   style="fill:#ffffff"
   inkscape:connector-curvature="0"
   id="path83"
   d="m 1577.2,649 c -8.8,0 -16,-7.2 -16,-16 0,-8.8 7.2,-16 16,-16 8.8,0 16,7.2 16,16 0,8.9 -7.2,16 -16,16 z m 0,-29.6 c -7.5,0 -13.7,6.1 -13.7,13.7 0,7.6 6.1,13.7 13.7,13.7 7.6,0 13.7,-6.1 13.7,-13.7 0,-7.6 -6.2,-13.7 -13.7,-13.7 z"
   class="st12" />
		</g>
		<g
   id="g89">
			<path
   style="fill:#ffffff"
   inkscape:connector-curvature="0"
   id="path87"
   d="m 1596.6,652.7 c -0.3,0 -0.6,-0.1 -0.8,-0.3 l -8.7,-8.3 c -0.5,-0.4 -0.5,-1.2 0,-1.6 0.4,-0.5 1.2,-0.5 1.6,0 l 8.7,8.3 c 0.5,0.4 0.5,1.2 0,1.6 -0.2,0.2 -0.5,0.3 -0.8,0.3 z"
   class="st12" />
		</g>
	</g>
</g><g
     transform="translate(0,-360)"
     id="g123">
	<path
   style="fill:#4aafca"
   inkscape:connector-curvature="0"
   id="path95"
   d="M 1345.3,946.6 H 977.2 c -10.1,0 -18.3,-8.2 -18.3,-18.3 v -251 c 0,-10.1 8.2,-18.3 18.3,-18.3 h 368.1 c 10.1,0 18.3,8.2 18.3,18.3 v 251.1 c 0.1,10 -8.1,18.2 -18.3,18.2 z"
   class="st7" />
	<path
   style="fill:#8ecdde"
   inkscape:connector-curvature="0"
   id="path97"
   d="M 1320.1,971.9 H 952 c -10.1,0 -18.3,-8.2 -18.3,-18.3 V 702.5 c 0,-10.1 8.2,-18.3 18.3,-18.3 h 368.1 c 10.1,0 18.3,8.2 18.3,18.3 v 251.1 c 0,10.1 -8.2,18.3 -18.3,18.3 z"
   class="st14" />
	<circle
   style="fill:#d2ebf2"
   id="circle99"
   r="21.9"
   cy="736.20001"
   cx="982.79999"
   class="st1" />
	<g
   id="g121">
		<g
   id="g103">
			<path
   style="fill:#d2ebf2"
   inkscape:connector-curvature="0"
   id="path101"
   d="M 1285,889.2 H 987 c -2.1,0 -3.8,-1.7 -3.8,-3.8 0,-2.1 1.7,-3.8 3.8,-3.8 h 298 c 2.1,0 3.8,1.7 3.8,3.8 0,2.1 -1.7,3.8 -3.8,3.8 z"
   class="st1" />
		</g>
		<path
   style="fill:#d2ebf2"
   inkscape:connector-curvature="0"
   id="path105"
   d="m 1012.4,885.4 h -3 c -3.1,0 -5.6,-2.5 -5.6,-5.6 V 817 c 0,-3.1 2.5,-5.6 5.6,-5.6 h 3 c 3.1,0 5.6,2.5 5.6,5.6 v 62.7 c 0,3.2 -2.5,5.7 -5.6,5.7 z"
   class="st1" />
		<path
   style="fill:#d2ebf2"
   inkscape:connector-curvature="0"
   id="path107"
   d="m 1094.9,885.4 h -3 c -3.1,0 -5.6,-2.5 -5.6,-5.6 V 751.2 c 0,-3.1 2.5,-5.6 5.6,-5.6 h 3 c 3.1,0 5.6,2.5 5.6,5.6 v 128.5 c 0,3.2 -2.5,5.7 -5.6,5.7 z"
   class="st1" />
		<path
   style="fill:#d2ebf2"
   inkscape:connector-curvature="0"
   id="path109"
   d="m 1177.4,885.4 h -3 c -3.1,0 -5.6,-2.5 -5.6,-5.6 v -95.5 c 0,-3.1 2.5,-5.6 5.6,-5.6 h 3 c 3.1,0 5.6,2.5 5.6,5.6 v 95.5 c 0,3.1 -2.5,5.6 -5.6,5.6 z"
   class="st1" />
		<path
   style="fill:#d2ebf2"
   inkscape:connector-curvature="0"
   id="path111"
   d="m 1259.9,885.4 h -3 c -3.1,0 -5.6,-2.5 -5.6,-5.6 V 732.2 c 0,-3.1 2.5,-5.6 5.6,-5.6 h 3 c 3.1,0 5.6,2.5 5.6,5.6 v 147.5 c 0,3.2 -2.5,5.7 -5.6,5.7 z"
   class="st1" />
		<circle
   style="fill:#a4d7e4"
   id="circle113"
   r="9.6999998"
   cy="885.40002"
   cx="1010.9"
   class="st15" />
		<circle
   style="fill:#a4d7e4"
   id="circle115"
   r="9.6999998"
   cy="885.40002"
   cx="1093.4"
   class="st15" />
		<circle
   style="fill:#a4d7e4"
   id="circle117"
   r="9.6999998"
   cy="885.40002"
   cx="1175.9"
   class="st15" />
		<circle
   style="fill:#a4d7e4"
   id="circle119"
   r="9.6999998"
   cy="885.40002"
   cx="1258.4"
   class="st15" />
	</g>
</g><path
     style="fill:none;stroke:#1d1d1b;stroke-width:2.12210011;stroke-miterlimit:10"
     inkscape:connector-curvature="0"
     id="path125"
     d="M 861.6,151.4"
     class="st16" /><g
     transform="translate(0,-360)"
     id="g207">
	<path
   style="fill:#ffc5b2"
   inkscape:connector-curvature="0"
   id="path127"
   d="M 868.7,567.7 V 695.4 H 767.9 c 0,0 0.8,-6.6 1.3,-15.3 0.8,-12 1.2,-28 -1.3,-36 -4.3,-13.8 -24.9,-38.9 -30,-50.2 -0.3,-0.8 -0.6,-1.5 -0.9,-2.3 -3.8,-11.3 -0.4,-27.5 8.6,-27.2 0,0 -4.4,-5.7 -6.9,-14 -1.2,-4 -1.9,-8.5 -1.5,-13.3 1.3,-14.8 10.9,-14.5 10.9,-14.5 0,0 -3.5,-7 -4.9,-14.7 -0.5,-3 -0.7,-6 -0.3,-8.8 0.9,-5.7 3.5,-8.7 6.8,-10.3 2.5,-1.2 5.4,-1.6 8.3,-1.6 0,0 -4.9,-7.7 -9.5,-15.7 -3.4,-5.9 -6.6,-11.9 -7.5,-15.2 -2.2,-7.7 0.6,-17 9,-16.4 1,0.1 2.2,0.6 3.6,1.5 11.3,7 36,36.4 48.4,44.1 6.3,3.9 20.6,21.2 34.4,38.9 16.6,21.4 32.3,43.3 32.3,43.3 z"
   class="st17" />
	<path
   style="fill:#ffa082"
   inkscape:connector-curvature="0"
   id="path129"
   d="m 836.4,524.5 v 95.7 l -28.1,15.7 c 0,0 2.4,-7.5 -26.1,-7.5 -28.5,0 -29.6,-17.2 -31.7,-23.8 -2.1,-6.6 -7.8,-13.2 -7.8,-13.2 0,0 9.5,-6.2 9.5,-20.1 0,-13.9 -7.3,-22.7 -7.3,-22.7 0,0 8.9,-11.9 8.9,-21.2 0,-9.2 -6.4,-19.7 -6.4,-19.7 l 16.2,1.4 c 0,0 -8.6,-10.6 -13.8,-20.3 2.5,-1.2 5.4,-1.6 8.3,-1.6 0,0 -4.9,-7.7 -9.5,-15.7 3.5,-8.2 4.8,-25 5.1,-30.1 11.3,7 36,36.4 48.4,44.1 6.3,4.1 20.6,21.4 34.3,39 z"
   class="st18" />
	<path
   style="fill:#ffa082"
   inkscape:connector-curvature="0"
   id="path131"
   d="m 868.7,671.1 v 24.3 H 767.9 c 0,0 0.8,-6.6 1.3,-15.3 18.9,-0.7 66.7,-3 99.5,-9 z"
   class="st18" />
	<path
   style="fill:#4aafca"
   inkscape:connector-curvature="0"
   id="path133"
   d="m 876.7,439 v 170.4 c 0,8.3 -6.8,15.1 -15.1,15.1 h -91.3 c -8.3,0 -15.1,-6.8 -15.1,-15.1 V 439 c 0,-8.3 6.8,-15.1 15.1,-15.1 h 91.3 c 8.4,0 15.1,6.8 15.1,15.1 z"
   class="st7" />
	<path
   style="fill:#fff0ee"
   inkscape:connector-curvature="0"
   id="path135"
   d="m 870.9,443.7 v 162.1 c 0,7.9 -6.1,14.4 -13.7,14.4 h -82.6 c -7.5,0 -13.7,-6.4 -13.7,-14.4 V 443.7 c 0,-8 6.1,-14.4 13.7,-14.4 h 17.8 l 5.4,5.4 c 1.1,1.1 2.5,1.7 4.1,1.7 h 28 c 1.5,0 3,-0.6 4.1,-1.7 l 5.4,-5.4 h 17.8 c 7.6,0 13.7,6.5 13.7,14.4 z"
   class="st19" />
	<path
   style="fill:#d2ebf2"
   inkscape:connector-curvature="0"
   id="path137"
   d="m 847.6,509.2 h -61.4 c -3.3,0 -5.9,-2.7 -5.9,-5.9 v -33.8 c 0,-3.3 2.7,-5.9 5.9,-5.9 h 61.4 c 3.3,0 5.9,2.7 5.9,5.9 v 33.8 c 0.1,3.2 -2.6,5.9 -5.9,5.9 z"
   class="st1" />
	<path
   style="fill:#d2ebf2"
   inkscape:connector-curvature="0"
   id="path139"
   d="m 847.6,543.9 h -61.4 c -3.3,0 -5.9,-2.7 -5.9,-5.9 v -12.6 c 0,-3.3 2.7,-5.9 5.9,-5.9 h 61.4 c 3.3,0 5.9,2.7 5.9,5.9 V 538 c 0.1,3.2 -2.6,5.9 -5.9,5.9 z"
   class="st1" />
	<path
   style="fill:#d2ebf2"
   inkscape:connector-curvature="0"
   id="path141"
   d="m 847.6,578.6 h -61.4 c -3.3,0 -5.9,-2.7 -5.9,-5.9 v -12.6 c 0,-3.3 2.7,-5.9 5.9,-5.9 h 61.4 c 3.3,0 5.9,2.7 5.9,5.9 v 12.6 c 0.1,3.2 -2.6,5.9 -5.9,5.9 z"
   class="st1" />
	<path
   style="fill:#33a5c3"
   inkscape:connector-curvature="0"
   id="path143"
   d="m 883.7,439 v 170.4 c 0,8.3 -6.8,15.1 -15.1,15.1 h -7 c 8.3,0 15.1,-6.8 15.1,-15.1 V 439 c 0,-8.3 -6.8,-15.1 -15.1,-15.1 h 7 c 8.4,0 15.1,6.8 15.1,15.1 z"
   class="st6" />
	<path
   style="fill:#ffc5b2"
   inkscape:connector-curvature="0"
   id="path145"
   d="m 882.7,621.6 c -3.6,8.6 -8.2,16.3 -14,22.5 h -63.1 c 0,0 7.3,-29.2 28.3,-43.4 21,-14.1 30,-44 32.2,-53 0,0 6.1,-33.4 21.9,-39.9 0.8,-0.3 1.5,-0.4 2,-0.2 4.5,1.8 -0.4,21.3 2.5,29.1 2.5,6.9 4.1,51.8 -9.8,84.9 z"
   class="st17" />
	<path
   style="fill:#ffa082"
   inkscape:connector-curvature="0"
   id="path147"
   d="m 882.7,621.6 c 5.7,-37 1.2,-79.5 4.1,-87.4 2.5,-6.9 3.1,-20.9 3.2,-26.6 4.5,1.8 -0.4,21.3 2.5,29.1 2.5,6.9 4.1,51.8 -9.8,84.9 z"
   class="st18" />
	<path
   style="fill:#ffc5b2"
   inkscape:connector-curvature="0"
   id="path149"
   d="m 768.3,605.6 c -2.4,7.1 -14.8,1.5 -18.6,-6.9 -3.1,-6.8 -9.6,-9.9 -12.7,-7.2 -3.8,-11.3 -0.4,-27.5 8.6,-27.2 0,0 9.6,4.7 15.9,11.4 6.1,6.8 9.1,22.9 6.8,29.9 z"
   class="st17" />
	<path
   style="fill:#ffc5b2"
   inkscape:connector-curvature="0"
   id="path151"
   d="m 761,561.5 c -7.7,-0.4 -12.4,-9.6 -15.4,-12.4 -3,-2.8 -6.9,1.3 -6.9,1.3 -1.2,-4 -1.9,-8.5 -1.5,-13.3 1.3,-14.8 10.9,-14.5 10.9,-14.5 8.3,3.8 13.7,9.8 16.1,17.4 2.4,7.6 4.5,21.9 -3.2,21.5 z"
   class="st17" />
	<path
   style="fill:#ffc5b2"
   inkscape:connector-curvature="0"
   id="path153"
   d="m 769.1,531.1 c -9,0 -15.8,-15 -18,-19.9 -1.6,-3.7 -5.3,-4.1 -7.9,-3.2 -0.5,-3 -0.7,-6 -0.3,-8.8 1.6,-10 8.4,-11.9 15.1,-11.9 0,0 3.6,0.3 11,12.5 7.4,12.2 9.1,31.3 0.1,31.3 z"
   class="st17" />
	<path
   style="fill:#ffa082"
   inkscape:connector-curvature="0"
   id="path155"
   d="m 651.8,559.6 c 0,0 8.2,8.7 13.7,13.5 5.5,4.8 -2.6,14.5 -10.3,20.2 -7.7,5.7 -39.9,-2.6 -39.9,-2.6 l -7.1,-29.2 z"
   class="st18" />
	<path
   style="fill:#ffc5b2"
   inkscape:connector-curvature="0"
   id="path157"
   d="m 690.9,549.8 c -15.4,1.4 -48.9,11.8 -57.9,17.9 -9,6 -17,17 -3.2,18.9 13.8,1.9 26.7,2.9 35.4,0 8.7,-3 9.3,12.4 0.6,22.2 -8.7,9.8 -23.8,9.5 -36.6,11.8 -3.5,0.6 -7.9,1.7 -12.5,3.3 -12.5,4.1 -27.2,10.8 -33.1,17.6 -8,9.3 -93.9,-65.7 -93.9,-65.7 0,0 7.8,-4 18.6,-9.8 16,-8.5 38.6,-21 52.7,-30.2 23.8,-15.4 79.7,-4.5 111.9,-8.4 32.2,-3.9 46.3,-6.4 46.9,2.6 0.7,9 -13.4,18.5 -28.9,19.8 z"
   class="st17" />
	<path
   style="fill:#ffa082"
   inkscape:connector-curvature="0"
   id="path159"
   d="m 616.7,623.9 c -12.5,4.1 -27.2,10.8 -33.1,17.6 -8,9.3 -93.9,-65.7 -93.9,-65.7 0,0 7.8,-4 18.6,-9.8 15.3,3.7 37.3,11.4 56,27.5 22.5,19.4 39,27.8 52.4,30.4 z"
   class="st18" />
	<path
   style="fill:#ffc5b2"
   inkscape:connector-curvature="0"
   id="path161"
   d="m 374,434.9 v 42.4 c 0,0 -4.7,12.1 -7.6,28 -1.4,7.6 -2.3,16.2 -2.1,24.7 H 230.6 v -95.1 z"
   class="st17" />
	<path
   style="fill:#ffa082"
   inkscape:connector-curvature="0"
   id="path163"
   d="m 374,434.9 v 42.4 c 0,0 -4.7,12.1 -7.6,28 C 317.7,496.1 307.7,449 307.7,449 v -14.1 z"
   class="st18" />
	<path
   style="fill:#212121"
   inkscape:connector-curvature="0"
   id="path165"
   d="m 451,245.3 c 0,0.1 -0.1,0.2 -0.1,0.4 -4,16 -12.8,27.3 -23.2,35.3 -24.6,19 -58.2,19.7 -58.2,19.7 0.4,16.8 -10.9,53.2 -16.5,54.4 -1.8,0.3 -3,-2.1 -4,-5.8 -2.3,-8.2 -4.1,-22.7 -10,-29 -8.5,-9.2 -31.5,-4.8 -34.4,16.9 -2.9,21.7 16.5,28.3 16.5,28.3 1.8,31.9 -13.7,66.6 -26.3,86.8 -4,6.3 -7.6,11.2 -10.4,14.2 -11.8,12.5 -31.2,23.7 -44,27 -12.9,3.4 -18.8,-10.4 -24.3,-6 -4.1,3.2 -11.1,0.7 -16.9,-11.7 -2.1,-4.5 -4.1,-10.4 -5.6,-17.7 -5.9,-27.6 -29.7,-98.4 -40.1,-117 -10.4,-18.6 -20.4,-31.9 -9.2,-65.8 3.5,-10.5 10.5,-23.4 19.2,-36.6 19.5,-29.6 47.3,-60.8 62.1,-69.3 21.3,-12.3 56.4,-14.3 81.5,-21.1 18.3,-5 5.1,-9.8 -1.4,-14.5 v 0 c -2.4,-1.8 -3.9,-3.5 -2.4,-5.2 5.3,-6.4 35.7,-24.4 85,-2.8 49.1,21.5 70.5,86 62.7,119.5 z"
   class="st20" />
	<path
   style="fill:#191919"
   inkscape:connector-curvature="0"
   id="path167"
   d="m 294.8,452.2 c -4,6.3 -7.6,11.2 -10.4,14.2 -11.8,12.5 -31.2,23.7 -44,27 -12.9,3.4 -18.8,-10.4 -24.3,-6 -4.1,3.2 -11.1,0.7 -16.9,-11.7 36.4,7.1 98.8,-71.9 96.8,-96.5 -2.2,-27.4 8.7,-42 8.7,-42 -2.9,21.7 16.5,28.3 16.5,28.3 1.8,31.8 -13.7,66.5 -26.4,86.7 z"
   class="st21" />
	<path
   style="fill:#191919"
   inkscape:connector-curvature="0"
   id="path169"
   d="m 450.9,245.7 c -4,16 -12.8,27.3 -23.2,35.3 -24.6,19 -58.2,19.7 -58.2,19.7 0.4,16.8 -10.9,53.2 -16.5,54.4 -1.8,0.3 -3,-2.1 -4,-5.8 3.6,-9.4 6.1,-22.8 5,-34.9 -1.9,-20.9 -1.9,-24.1 45,-33.3 26.5,-5.3 42.7,-21.9 51.9,-35.4 z"
   class="st21" />
	<path
   style="fill:#ffc5b2"
   inkscape:connector-curvature="0"
   id="path171"
   d="m 440.8,365.8 c -9.7,11.7 -9.6,25 -7.6,38.7 2,13.7 -3.3,80.7 -74,72.2 -27.4,-3.3 -48.7,-10.8 -64.4,-24.4 12.7,-20.2 28.2,-54.9 26.3,-86.8 0,0 -19.4,-6.6 -16.5,-28.3 2.9,-21.7 25.9,-26.1 34.4,-16.9 8.5,9.1 8.4,35.9 14,34.8 1.5,-0.3 3.4,-3.1 5.4,-7.4 5.4,-11.8 11.4,-34.7 11.1,-47 0,0 33.6,-0.7 58.2,-19.7 0,0.3 -0.4,7.8 -0.2,17.5 0.3,14.5 1.9,33.9 7.9,41.3 10.2,12.5 15,14.3 5.4,26 z"
   class="st17" />
	<path
   style="fill:#ffa082"
   inkscape:connector-curvature="0"
   id="path173"
   d="m 427.5,298.5 c -22.9,10.3 -51.8,11 -51.8,11 -2.9,20.6 -12.1,32.8 -17.3,38.2 5.4,-11.8 11.4,-34.7 11.1,-47 0,0 33.6,-0.7 58.2,-19.7 0,0.3 -0.4,7.8 -0.2,17.5 z"
   class="st18" />
	<path
   style="fill:none;stroke:#1d1d1b;stroke-miterlimit:10"
   inkscape:connector-curvature="0"
   id="path175"
   d="M 422.2,506.9"
   class="st22" />
	<path
   style="fill:#d78b77"
   inkscape:connector-curvature="0"
   id="path177"
   d="m 177.3,549.9 8.4,-38.6 c 0,0 53.9,-30.2 121.8,-25.7 67.9,4.5 91.6,18.6 91.6,18.6 l 39.2,42.4 v 16.1 h -261 z"
   class="st23" />
	<path
   style="fill:#ca644a"
   inkscape:connector-curvature="0"
   id="path179"
   d="m 561.5,757.9 c -9.3,34.4 -19.1,74.8 -19.1,125.3 0,25.1 0.6,77.8 1.2,126.6 0.3,26.1 0.7,51.1 0.9,70.1 -31.6,-0.4 -61.8,-1.2 -90.6,-2.7 -200.2,-10.4 -333.5,-52.9 -401.3,-191.7 -5.9,-47.3 -9.9,-99.8 -0.3,-158.7 9.2,-56.4 54.5,-133.3 125,-176.7 16.5,-10.1 34.3,-18.5 53.4,-24.2 19.4,-5.9 40,-9.2 61.8,-9.2 25.1,0 49.2,2.7 71.9,7.2 26.1,5.1 50.3,12.5 71.8,20.7 23.9,9 44.4,19 60.6,27.7 24.9,13.5 39.3,24.1 39.3,24.1 17,14.3 27.9,28 34.4,41.9 16.3,35.1 4.1,71.4 -9,119.6 z"
   class="st24" />
	<path
   style="fill:#c35133"
   inkscape:connector-curvature="0"
   id="path181"
   d="m 543.6,1009.7 c 0.3,26.1 0.7,51.1 0.9,70.1 -31.6,-0.4 -61.8,-1.2 -90.6,-2.7 -4,-52.5 -21.7,-123.7 -15.6,-193.9 8.9,-103.1 68.9,-231.7 69.8,-233.8 0,0 0,0 0,0 l 53.4,108.5 c -9.3,34.4 -19.1,74.8 -19.1,125.3 0,25.1 0.6,77.8 1.2,126.5 z"
   class="st25" />
	<path
   style="fill:#ca644a"
   inkscape:connector-curvature="0"
   id="path183"
   d="m 894.7,924.7 c -1.3,122.2 -93.9,155.3 -126,155.3 -32.1,0 -123.4,0 -196.7,-47.3 -73.3,-47.3 -106.7,-149.1 -90,-272.6 16.7,-123.5 54,-163.9 54,-163.9 84,45.5 177.4,241.9 177.4,241.9 2.7,-3.8 6.2,-11.6 9.9,-21.7 15.8,-42.5 37.6,-125.7 37.6,-125.7 h 110.6 c 0.1,0 24.5,111.9 23.2,234 z"
   class="st24" />
	<path
   style="fill:#c35133"
   inkscape:connector-curvature="0"
   id="path185"
   d="m 775.2,890 c -14.1,-23.1 -61.8,-51.9 -61.8,-51.9 2.7,-3.8 6.2,-11.6 9.9,-21.7 33,8.6 51.5,72.2 51.9,73.6 z"
   class="st25" />
	
		<ellipse
   style="fill:#ffa082"
   id="ellipse187"
   ry="6.9000001"
   rx="12.1"
   cy="339.89999"
   cx="325.89999"
   class="st18"
   transform="matrix(0.08879781,-0.996,0.996,0.08879781,-41.6222,634.2863)" />
	<g
   id="g191">
		<path
   style="fill:#212121"
   inkscape:connector-curvature="0"
   id="path189"
   d="m 388.2,314.2 c -0.4,0 -0.8,-0.1 -1.1,-0.3 -0.9,-0.6 -1.1,-1.9 -0.5,-2.8 4.1,-6 9.1,-9.5 15,-10.5 10.1,-1.8 18.9,4.5 19.2,4.7 0.9,0.6 1.1,1.9 0.5,2.8 -0.6,0.9 -1.9,1.1 -2.8,0.5 -0.1,-0.1 -7.9,-5.5 -16.2,-4 -4.8,0.8 -9,3.8 -12.4,8.9 -0.4,0.4 -1.1,0.7 -1.7,0.7 z"
   class="st20" />
	</g>
	
		<ellipse
   style="fill:#212121"
   id="ellipse193"
   ry="4.8000002"
   rx="14.5"
   cy="329.60001"
   cx="407.89999"
   class="st20"
   transform="matrix(0.1602,-0.9871,0.9871,0.1602,17.2352,679.4887)" />
	<g
   id="g197">
		<path
   style="fill:#ffa082"
   inkscape:connector-curvature="0"
   id="path195"
   d="m 409,417.9 c -5.9,0 -13.6,-2 -21.6,-9.5 -0.6,-0.6 -0.6,-1.5 -0.1,-2.1 0.6,-0.6 1.5,-0.6 2.1,-0.1 15.4,14.5 28.9,6.6 29.1,6.6 0.7,-0.4 1.6,-0.2 2.1,0.5 0.4,0.7 0.2,1.6 -0.5,2.1 -0.1,0 -4.4,2.5 -11.1,2.5 z"
   class="st18" />
	</g>
	<polyline
   style="fill:none;stroke:#6fca4a;stroke-width:3;stroke-linecap:round;stroke-linejoin:round;stroke-miterlimit:10"
   id="polyline199"
   points="781.1,463.5 786.1,468.5 797,456.5  "
   class="st26" />
	<polyline
   style="fill:none;stroke:#6fca4a;stroke-width:3;stroke-linecap:round;stroke-linejoin:round;stroke-miterlimit:10"
   id="polyline201"
   points="781.1,519.2 786.1,524.2 797,512.2  "
   class="st26" />
	<polyline
   style="fill:none;stroke:#6fca4a;stroke-width:3;stroke-linecap:round;stroke-linejoin:round;stroke-miterlimit:10"
   id="polyline203"
   points="781.1,555.1 786.1,560.1 797,548.1  "
   class="st26" />
	<path
   style="opacity:0.15;fill:#e8edf8"
   inkscape:connector-curvature="0"
   id="path205"
   d="m 282.1,191.9 c -42.4,16.7 -88.1,34.1 -100.9,46.9 -7.8,7.8 -14.5,5.6 -17.7,-0.2 19.5,-29.6 47.3,-60.8 62.1,-69.3 21.3,-12.3 56.4,-14.3 81.5,-21.1 18.3,-5 5.1,-9.8 -1.4,-14.5 0,0 15.1,-2.3 26.6,7.4 11.5,9.6 -7.8,34 -50.2,50.8 z"
   class="st27" />
</g><path
     style="fill:#33a5c3"
     inkscape:connector-curvature="0"
     id="path209"
     d="m 1111.6,169.8 v 18.1 c -5,0 -9.1,-4.1 -9.1,-9.1 0,-5 4.1,-9 9.1,-9 z"
     class="st6" /><path
     style="fill:#33a5c3"
     inkscape:connector-curvature="0"
     id="path211"
     d="m 1449.5,306.1 v 18.1 c -5,0 -9.1,-4.1 -9.1,-9.1 0,-5 4.1,-9 9.1,-9 z"
     class="st6" /><path
     style="fill:#33a5c3"
     inkscape:connector-curvature="0"
     id="path213"
     d="m 1095.4,298.9 h -18.1 c 0,-5 4.1,-9.1 9.1,-9.1 5,0 9,4.1 9,9.1 z"
     class="st6" /><path
     style="fill:#33a5c3"
     inkscape:connector-curvature="0"
     id="path215"
     d="m 1432.1,-23.9 v 18.1 c -5,0 -9.1,-4.1 -9.1,-9.1 0,-5 4.1,-9 9.1,-9 z"
     class="st6" /><path
     style="fill:#33a5c3"
     inkscape:connector-curvature="0"
     id="path217"
     d="m 1038.6,2.3 h 18.1 c 0,5 -4.1,9.1 -9.1,9.1 -5,0 -9,-4.1 -9,-9.1 z"
     class="st6" /><circle
     style="fill:#d2ebf2"
     id="circle219"
     r="63"
     cy="-181.60001"
     cx="712.20001"
     class="st1" /><circle
     style="fill:#bbe1eb"
     id="circle221"
     r="36.200001"
     cy="548.90002"
     cx="1649.3"
     class="st28" /><circle
     style="fill:#d2ebf2"
     id="circle223"
     r="36.200001"
     cy="127.20001"
     cx="514"
     class="st1" /><path
     style="fill:none;stroke:#191919;stroke-width:5;stroke-linecap:round;stroke-linejoin:round;stroke-miterlimit:10"
     inkscape:connector-curvature="0"
     id="path225"
     d="m 139.3,-64.3 c 0,0 21,-73.7 99.1,-54.2 78.1,19.5 217.2,-34.8 172.7,-101.2"
     class="st29" /><path
     style="fill:none;stroke:#191919;stroke-width:5;stroke-linecap:round;stroke-linejoin:round;stroke-miterlimit:10"
     inkscape:connector-curvature="0"
     id="path227"
     d="m 186.6,-152.7 c 0,0 26.7,-10.3 82,4.5 55.3,14.8 110.3,-25.5 105.4,-59.1 -4.9,-33.6 -34.1,-37.2 -34.1,-37.2"
     class="st29" /></g>
</svg>